 <svg version="1.0" xmlns="http://www.w3.org/2000/svg"  width="300.000000pt" height="300.000000pt" viewBox="0 0 300.000000 300.000000"  preserveAspectRatio="xMidYMid meet">  <g transform="translate(0.000000,300.000000) scale(0.100000,-0.100000)" fill="#000000" stroke="none"> <path d="M2590 2369 c-150 -68 -215 -248 -141 -393 l29 -58 -230 -341 c-126 -188 -237 -354 -245 -368 -15 -25 -19 -26 -79 -21 -44 3 -79 0 -115 -13 l-53 -17 -203 205 -203 204 16 39 c25 60 15 178 -19 237 -122 208 -421 192 -518 -28 -14 -31 -22 -71 -23 -107 l-1 -56 -154 -76 -154 -75 -34 29 c-96 85 -268 74 -371 -24 -58 -54 -82 -114 -82 -206 0 -100 22 -152 92 -215 112 -100 281 -98 387 5 58 57 83 112 89 196 l4 71 147 72 146 73 52 -35 c86 -58 198 -70 277 -30 l29 15 204 -205 205 -205 -16 -46 c-67 -197 98 -406 301 -382 211 25 331 266 218 438 l-25 37 247 368 247 368 74 -4 c91 -4 148 16 210 73 120 110 125 302 11 415 -78 79 -219 105 -319 60z m226 -25 c44 -16 100 -70 130 -125 14 -25 19 -55 19 -114 0 -70 -4 -86 -27 -126 -34 -56 -60 -80 -118 -111 -38 -19 -59 -23 -130 -22 -75 1 -87 -1 -100 -19 -84 -115 -490 -724 -490 -735 0 -5 12 -31 26 -57 35 -62 44 -166 20 -229 -50 -130 -223 -204 -347 -149 -106 47 -159 129 -159 246 0 38 7 83 15 103 l15 36 -158 162 c-86 88 -183 185 -214 214 l-57 54 -54 -16 c-100 -29 -190 -13 -271 49 l-37 28 -142 -69 c-175 -84 -186 -93 -181 -144 6 -63 -29 -159 -73 -202 -135 -130 -343 -99 -427 64 -39 77 -43 129 -16 200 66 178 261 233 423 121 l38 -26 147 72 c81 40 155 80 165 88 11 11 17 31 17 58 0 149 107 265 247 268 119 2 199 -41 246 -131 36 -70 43 -134 22 -210 -10 -35 -16 -64 -14 -67 2 -2 96 -97 208 -210 212 -212 224 -221 274 -193 13 7 57 11 105 11 l82 -2 38 56 c48 73 46 70 121 182 345 515 343 511 336 542 -4 16 -10 29 -15 29 -11 0 -33 67 -26 79 4 5 2 12 -4 16 -27 17 3 146 49 203 68 87 201 119 317 76z"/> <path d="M2629 2211 c-72 -60 -76 -136 -11 -200 20 -20 46 -38 57 -39 11 -2 22 -4 25 -5 25 -5 75 21 106 55 34 38 36 44 32 90 -7 70 -56 119 -125 125 -42 4 -52 1 -84 -26z m156 -31 c90 -90 -30 -239 -135 -168 -19 13 -40 39 -48 60 -13 33 -12 41 4 75 23 46 76 76 119 68 17 -3 44 -19 60 -35z"/> <path d="M1035 1822 c-46 -30 -66 -57 -72 -100 -10 -71 43 -138 118 -148 55 -7 105 22 133 79 24 50 15 98 -27 144 -41 44 -105 55 -152 25z m131 -33 c13 -12 28 -37 35 -56 24 -74 -60 -158 -134 -134 -19 7 -45 23 -58 37 -48 51 -23 145 46 175 30 13 85 2 111 -22z"/> <path d="M238 1421 c-98 -49 -102 -187 -7 -237 38 -19 119 -15 141 7 36 36 48 66 48 114 0 45 -4 55 -34 84 -44 43 -103 55 -148 32z m111 -25 c33 -17 51 -54 51 -102 0 -48 -54 -104 -98 -104 -76 0 -127 54 -118 125 9 78 92 118 165 81z"/> <path d="M1885 1032 c-30 -3 -48 -13 -77 -42 -34 -34 -38 -44 -38 -90 0 -47 4 -56 38 -91 48 -48 81 -56 135 -35 55 21 80 57 85 121 4 43 0 55 -21 80 -36 42 -75 61 -122 57z m91 -56 c28 -28 34 -42 34 -76 0 -34 -6 -48 -34 -76 -28 -28 -42 -34 -76 -34 -34 0 -48 6 -76 34 -28 28 -34 42 -34 76 0 34 6 48 34 76 28 28 42 34 76 34 34 0 48 -6 76 -34z"/> </g> </svg> 